<?xml version="1.0" encoding="UTF-8" standalone="no"?>
<!-- Uploaded to: SVG Repo, www.svgrepo.com, Generator: SVG Repo Mixer Tools -->

<svg
   width="800px"
   height="800px"
   viewBox="0 0 24 24"
   version="1.1"
   id="svg1"
   sodipodi:docname="github (copy).svg"
   inkscape:version="1.3.2 (091e20ef0f, 2023-11-25)"
   xmlns:inkscape="http://www.inkscape.org/namespaces/inkscape"
   xmlns:sodipodi="http://sodipodi.sourceforge.net/DTD/sodipodi-0.dtd"
   xmlns="http://www.w3.org/2000/svg"
   xmlns:svg="http://www.w3.org/2000/svg">
  <defs
     id="defs1" />
  <sodipodi:namedview
     id="namedview1"
     pagecolor="#ffffff"
     bordercolor="#000000"
     borderopacity="0.25"
     inkscape:showpageshadow="2"
     inkscape:pageopacity="0.0"
     inkscape:pagecheckerboard="0"
     inkscape:deskcolor="#d1d1d1"
     inkscape:zoom="0.225"
     inkscape:cx="326.66667"
     inkscape:cy="382.22222"
     inkscape:window-width="1280"
     inkscape:window-height="770"
     inkscape:window-x="0"
     inkscape:window-y="0"
     inkscape:window-maximized="1"
     inkscape:current-layer="svg1" />
  <title
     id="title1">github</title>
  <rect
     width="28.141666"
     height="28.141666"
     fill="none"
     id="rect1"
     x="-2.0708332"
     y="-2.0708332"
     style="stroke-width:1" />
  <path
     d="M 12.029427,0.55840907 A 11.725694,11.725694 0 0 0 8.324108,23.423512 c 0.5862846,0.0938 0.7738962,-0.26969 0.7738962,-0.586284 V 20.855586 C 5.8499866,21.559127 5.1581707,19.31952 5.1581707,19.31952 A 3.1542116,3.1542116 0 0 0 3.8214416,17.560666 c -1.0670382,-0.726993 0.08208,-0.703542 0.08208,-0.703542 a 2.4623957,2.4623957 0 0 1 1.7940312,1.172569 2.5210242,2.5210242 0 0 0 3.4121763,0.973233 2.5327499,2.5327499 0 0 1 0.7387194,-1.571243 C 7.3391497,17.173718 4.5484346,16.165308 4.5484346,11.697819 A 4.5378435,4.5378435 0 0 1 5.721004,8.5201551 4.1977984,4.1977984 0 0 1 5.838261,5.424572 c 0,0 0.9849582,-0.3165938 3.2245656,1.1725694 a 11.291843,11.291843 0 0 1 5.8628474,0 C 17.165281,5.0845268 18.15024,5.424572 18.15024,5.424572 a 4.1977984,4.1977984 0 0 1 0.117256,3.0955831 4.5378435,4.5378435 0 0 1 1.17257,3.1776639 c 0,4.479215 -2.743812,5.464173 -5.358642,5.757315 a 2.8024408,2.8024408 0 0 1 0.809073,2.169254 v 3.21284 c 0,0.316594 0.187611,0.691816 0.785621,0.586284 A 11.725694,11.725694 0 0 0 12.029427,0.55840907 Z"
     id="path1"
     style="stroke-width:1;fill:#f9f9f9" />
</svg>
