<?xml version="1.0" encoding="UTF-8" standalone="no"?>
<svg
   id="Layer_1"
   data-name="Layer 1"
   viewBox="0 0 738 252"
   version="1.1"
   sodipodi:docname="logo-9-21-white (copy).svg"
   inkscape:version="1.3.2 (091e20ef0f, 2023-11-25)"
   xmlns:inkscape="http://www.inkscape.org/namespaces/inkscape"
   xmlns:sodipodi="http://sodipodi.sourceforge.net/DTD/sodipodi-0.dtd"
   xmlns="http://www.w3.org/2000/svg"
   xmlns:svg="http://www.w3.org/2000/svg">
  <sodipodi:namedview
     id="namedview51"
     pagecolor="#ffffff"
     bordercolor="#000000"
     borderopacity="0.25"
     inkscape:showpageshadow="2"
     inkscape:pageopacity="0.0"
     inkscape:pagecheckerboard="0"
     inkscape:deskcolor="#d1d1d1"
     inkscape:zoom="0.41327913"
     inkscape:cx="369"
     inkscape:cy="125.82295"
     inkscape:window-width="1280"
     inkscape:window-height="770"
     inkscape:window-x="0"
     inkscape:window-y="0"
     inkscape:window-maximized="1"
     inkscape:current-layer="Layer_1" />
  <defs
     id="defs1">
    <style
       id="style1">
      .cls-1 {
        fill: #fff;
        stroke-width: 0px;
      }
    </style>
  </defs>
  <rect
     class="cls-1"
     x="45"
     y="45"
     width="18"
     height="162"
     id="rect1"
     style="fill:#000000" />
  <rect
     class="cls-1"
     x="63"
     y="117"
     width="63"
     height="18"
     id="rect2"
     style="fill:#000000" />
  <rect
     class="cls-1"
     x="117"
     y="126"
     width="18"
     height="81"
     id="rect3"
     style="fill:#000000" />
  <rect
     class="cls-1"
     x="162"
     y="117"
     width="36"
     height="18"
     id="rect4"
     style="fill:#000000" />
  <rect
     class="cls-1"
     x="153"
     y="126"
     width="18"
     height="72"
     id="rect5"
     style="fill:#000000" />
  <rect
     class="cls-1"
     x="117"
     y="45"
     width="18"
     height="90"
     id="rect6"
     style="fill:#000000" />
  <rect
     class="cls-1"
     x="162"
     y="189"
     width="72"
     height="18"
     id="rect7"
     style="fill:#000000" />
  <rect
     class="cls-1"
     x="225"
     y="54"
     width="18"
     height="144"
     id="rect8"
     style="fill:#000000" />
  <rect
     class="cls-1"
     x="162"
     y="45"
     width="72"
     height="18"
     id="rect9"
     style="fill:#000000" />
  <rect
     class="cls-1"
     x="153"
     y="54"
     width="18"
     height="27"
     id="rect10"
     style="fill:#000000" />
  <rect
     class="cls-1"
     x="261"
     y="72"
     width="18"
     height="135"
     id="rect11"
     style="fill:#000000" />
  <rect
     class="cls-1"
     x="324"
     y="72"
     width="18"
     height="135"
     id="rect12"
     style="fill:#000000" />
  <rect
     class="cls-1"
     x="459"
     y="45"
     width="18"
     height="153"
     transform="translate(936 243) rotate(180)"
     id="rect13"
     style="fill:#000000" />
  <rect
     class="cls-1"
     x="396"
     y="117"
     width="63"
     height="18"
     transform="translate(855 252) rotate(180)"
     id="rect14"
     style="fill:#000000" />
  <rect
     class="cls-1"
     x="387"
     y="45"
     width="18"
     height="81"
     transform="translate(792 171) rotate(180)"
     id="rect15"
     style="fill:#000000" />
  <rect
     class="cls-1"
     x="396"
     y="189"
     width="72"
     height="18"
     transform="translate(864 396) rotate(180)"
     id="rect16"
     style="fill:#000000" />
  <rect
     class="cls-1"
     x="387"
     y="171"
     width="18"
     height="27"
     transform="translate(792 369) rotate(180)"
     id="rect17"
     style="fill:#000000" />
  <rect
     class="cls-1"
     x="540"
     y="117"
     width="36"
     height="18"
     transform="translate(1116 252) rotate(180)"
     id="rect18"
     style="fill:#000000" />
  <rect
     class="cls-1"
     x="567"
     y="126"
     width="18"
     height="72"
     transform="translate(1152 324) rotate(180)"
     id="rect19"
     style="fill:#000000" />
  <rect
     class="cls-1"
     x="504"
     y="189"
     width="72"
     height="18"
     transform="translate(1080 396) rotate(180)"
     id="rect20"
     style="fill:#000000" />
  <rect
     class="cls-1"
     x="495"
     y="54"
     width="18"
     height="144"
     transform="translate(1008 252) rotate(180)"
     id="rect21"
     style="fill:#000000" />
  <rect
     class="cls-1"
     x="504"
     y="45"
     width="72"
     height="18"
     transform="translate(1080 108) rotate(180)"
     id="rect22"
     style="fill:#000000" />
  <rect
     class="cls-1"
     x="567"
     y="54"
     width="18"
     height="27"
     transform="translate(1152 135) rotate(180)"
     id="rect23"
     style="fill:#000000" />
  <rect
     class="cls-1"
     x="603"
     y="45"
     width="18"
     height="144"
     id="rect24"
     style="fill:#000000" />
  <rect
     class="cls-1"
     x="603"
     y="171"
     width="18"
     height="27"
     id="rect25"
     style="fill:#000000" />
  <rect
     class="cls-1"
     x="612"
     y="189"
     width="72"
     height="18"
     id="rect26"
     style="fill:#000000" />
  <rect
     class="cls-1"
     x="675"
     y="45"
     width="18"
     height="135"
     transform="translate(1368 225) rotate(180)"
     id="rect27"
     style="fill:#000000" />
  <rect
     class="cls-1"
     x="675"
     y="171"
     width="18"
     height="27"
     transform="translate(1368 369) rotate(180)"
     id="rect28"
     style="fill:#000000" />
  <circle
     class="cls-1"
     cx="126"
     cy="126"
     r="9"
     id="circle28"
     style="fill:#000000" />
  <circle
     class="cls-1"
     cx="162"
     cy="126"
     r="9"
     id="circle29"
     style="fill:#000000" />
  <circle
     class="cls-1"
     cx="162"
     cy="54"
     r="9"
     id="circle30"
     style="fill:#000000" />
  <circle
     class="cls-1"
     cx="234"
     cy="54"
     r="9"
     id="circle31"
     style="fill:#000000" />
  <circle
     class="cls-1"
     cx="162"
     cy="198"
     r="9"
     id="circle32"
     style="fill:#000000" />
  <circle
     class="cls-1"
     cx="234"
     cy="198"
     r="9"
     id="circle33"
     style="fill:#000000" />
  <circle
     class="cls-1"
     cx="396"
     cy="126"
     r="9"
     id="circle34"
     style="fill:#000000" />
  <circle
     class="cls-1"
     cx="396"
     cy="198"
     r="9"
     id="circle35"
     style="fill:#000000" />
  <circle
     class="cls-1"
     cx="468"
     cy="198"
     r="9"
     id="circle36"
     style="fill:#000000" />
  <circle
     class="cls-1"
     cx="576"
     cy="198"
     r="9"
     id="circle37"
     style="fill:#000000" />
  <circle
     class="cls-1"
     cx="576"
     cy="54"
     r="9"
     id="circle38"
     style="fill:#000000" />
  <circle
     class="cls-1"
     cx="576"
     cy="126"
     r="9"
     id="circle39"
     style="fill:#000000" />
  <circle
     class="cls-1"
     cx="504"
     cy="198"
     r="9"
     id="circle40"
     style="fill:#000000" />
  <circle
     class="cls-1"
     cx="504"
     cy="54"
     r="9"
     id="circle41"
     style="fill:#000000" />
  <circle
     class="cls-1"
     cx="612"
     cy="198"
     r="9"
     id="circle42"
     style="fill:#000000" />
  <circle
     class="cls-1"
     cx="684"
     cy="198"
     r="9"
     id="circle43"
     style="fill:#000000" />
  <path
     class="cls-1"
     d="m288,63v-18c-14.91,0-27,12.09-27,27h18c0-4.97,4.03-9,9-9Z"
     id="path43"
     style="fill:#000000" />
  <rect
     class="cls-1"
     x="288"
     y="45"
     width="18"
     height="18"
     id="rect43"
     style="fill:#000000" />
  <path
     class="cls-1"
     d="m351,63v-18c-14.91,0-27,12.09-27,27h18c0-4.97,4.03-9,9-9Z"
     id="path44"
     style="fill:#000000" />
  <rect
     class="cls-1"
     x="351"
     y="45"
     width="18"
     height="18"
     id="rect44"
     style="fill:#000000" />
  <rect
     class="cls-1"
     x="9"
     width="720"
     height="18"
     id="rect45"
     style="fill:#000000" />
  <rect
     class="cls-1"
     x="720"
     y="9"
     width="18"
     height="234"
     id="rect46"
     style="fill:#000000" />
  <rect
     class="cls-1"
     y="9"
     width="18"
     height="234"
     id="rect47"
     style="fill:#000000" />
  <rect
     class="cls-1"
     x="9"
     y="234"
     width="720"
     height="18"
     id="rect48"
     style="fill:#000000" />
  <circle
     class="cls-1"
     cx="9"
     cy="9"
     r="9"
     id="circle48"
     style="fill:#000000" />
  <circle
     class="cls-1"
     cx="9"
     cy="243"
     r="9"
     id="circle49"
     style="fill:#000000" />
  <circle
     class="cls-1"
     cx="729"
     cy="243"
     r="9"
     id="circle50"
     style="fill:#000000" />
  <circle
     class="cls-1"
     cx="729"
     cy="9"
     r="9"
     id="circle51"
     style="fill:#000000" />
</svg>
