<?xml version="1.0" encoding="UTF-8" standalone="no"?>
<svg
   id="Layer_1"
   data-name="Layer 1"
   viewBox="0 0 467.7 350.62"
   version="1.1"
   sodipodi:docname="logo.svg"
   inkscape:version="1.2.2 (b0a8486541, 2022-12-01)"
   xmlns:inkscape="http://www.inkscape.org/namespaces/inkscape"
   xmlns:sodipodi="http://sodipodi.sourceforge.net/DTD/sodipodi-0.dtd"
   xmlns="http://www.w3.org/2000/svg"
   xmlns:svg="http://www.w3.org/2000/svg">
  <sodipodi:namedview
     id="namedview85"
     pagecolor="#ffffff"
     bordercolor="#000000"
     borderopacity="0.25"
     inkscape:showpageshadow="2"
     inkscape:pageopacity="0.0"
     inkscape:pagecheckerboard="0"
     inkscape:deskcolor="#d1d1d1"
     showgrid="false"
     inkscape:zoom="0.67309339"
     inkscape:cx="233.25144"
     inkscape:cy="176.05284"
     inkscape:window-width="1280"
     inkscape:window-height="734"
     inkscape:window-x="0"
     inkscape:window-y="0"
     inkscape:window-maximized="1"
     inkscape:current-layer="Layer_1" />
  <defs
     id="defs4">
    <style
       id="style2">
      .cls-1 {
        fill: #707071;
      }
    </style>
  </defs>
  <rect
     class="cls-1"
     x="307.29"
     y="148.94"
     width="7.47"
     height="0"
     id="rect54" />
  <g
     id="g803"
     transform="rotate(0.61625634,251.48,149.465)">
    <polygon
       class="cls-1"
       points="307.29,156.32 307.29,156.87 326.72,183.38 326.7,181.99 307.89,156.32 "
       id="polygon6" />
    <path
       class="cls-1"
       d="m 324.23,141.49 c 0.79,-0.95 1.38,-2.04 1.78,-3.27 l -0.14,-8.78 c -1.87,-4.8 -7.14,-7.22 -15.86,-7.22 h -0.43 c 0,0 -2.28,-3 -2.28,-3 v 1.31 l 1.28,1.69 h 0.43 c 11.09,0 16.64,3.89 16.64,11.66 0,3.12 -0.81,5.65 -2.42,7.6 l 2.89,3.8 -0.02,-1.34 -1.87,-2.46 z"
       id="path8" />
    <path
       class="cls-1"
       d="m 326.1,143.95 0.02,1.34 3.78,4.97 c 0.2,-0.17 0.39,-0.36 0.59,-0.54 l -3.36,-4.42 -1.02,-1.34 z"
       id="path10" />
    <path
       class="cls-1"
       d="m 325.87,129.44 0.14,8.78 c 0.42,-1.29 0.64,-2.73 0.64,-4.33 0,-1.66 -0.27,-3.14 -0.78,-4.44 z"
       id="path12" />
    <polygon
       class="cls-1"
       points="326.72,183.38 329.68,187.42 330.68,187.42 327.72,183.38 326.7,181.99 "
       id="polygon14" />
    <polygon
       class="cls-1"
       points="407.95,110.79 407.98,112.87 409.24,110.79 "
       id="polygon16" />
    <polygon
       class="cls-1"
       points="407.95,110.79 395.39,110.79 377.1,141.15 370.55,130.26 370.92,153.73 371.06,153.95 371.06,162.22 371.45,186.77 383.1,186.77 383.1,153.95 407.98,112.87 "
       id="polygon18" />
    <path
       class="cls-1"
       d="m 312.62,146.13 0.06,0.07 c 0.31,-0.02 0.64,-0.04 0.94,-0.07 l -6.33,-8.3 v 1.31 z"
       id="path20" />
    <path
       class="cls-1"
       d="m 308.54,146.33 c 1.45,0 2.81,-0.07 4.08,-0.2 l -5.33,-6.99 v 7.19 z"
       id="path22" />
    <path
       class="cls-1"
       d="m 307.29,146.34 v 0 c 0,0 2.25,0 2.25,0 1.1,0 2.14,-0.05 3.13,-0.13 l -0.06,-0.07 c -1.27,0.13 -2.62,0.2 -4.08,0.2 h -1.25 z"
       id="path24" />
    <polygon
       class="cls-1"
       points="327.44,165.58 327.42,164.24 315.76,148.94 314.76,148.94 326.42,164.24 "
       id="polygon26" />
    <polygon
       class="cls-1"
       points="307.29,148.94 307.29,156.32 307.89,156.32 326.7,181.99 326.42,164.24 314.76,148.94 "
       id="polygon28" />
    <polygon
       class="cls-1"
       points="327.72,183.38 327.44,165.58 326.42,164.24 326.7,181.99 "
       id="polygon30" />
    <path
       class="cls-1"
       d="m 325.64,114.67 c 0.35,0.16 0.68,0.33 1.01,0.5 v -0.5 c -4.63,-2.15 -10.91,-3.22 -18.86,-3.22 h -0.49 c 7.7,0.05 13.82,1.12 18.34,3.22 z"
       id="path32" />
    <path
       class="cls-1"
       d="m 309.58,122.22 h 0.43 c 8.72,0 14,2.41 15.86,7.22 l -0.23,-14.78 c -4.52,-2.1 -10.64,-3.16 -18.34,-3.21 v 7.77 z"
       id="path34" />
    <path
       class="cls-1"
       d="m 324.23,141.49 1.87,2.46 -0.09,-5.73 c -0.4,1.23 -0.99,2.32 -1.78,3.27 z"
       id="path36" />
    <path
       class="cls-1"
       d="m 326.65,133.88 c 0,1.6 -0.22,3.04 -0.64,4.33 l 0.09,5.73 1.02,1.34 -0.48,-30.12 c -0.33,-0.17 -0.66,-0.34 -1.01,-0.5 l 0.23,14.78 c 0.51,1.31 0.78,2.78 0.78,4.44 z"
       id="path38" />
    <path
       class="cls-1"
       d="m 329.62,117.1 c 5.17,4.2 7.75,9.74 7.75,16.63 0,5.38 -1.62,10.01 -4.86,13.88 -0.64,0.76 -1.32,1.45 -2.04,2.1 l 0.41,0.54 c 0.94,-0.79 1.81,-1.68 2.62,-2.64 3.24,-3.87 4.86,-8.5 4.86,-13.88 0,-6.89 -2.59,-12.43 -7.75,-16.63 -1.15,-0.93 -2.48,-1.74 -3.99,-2.44 v 0.5 c 1.11,0.58 2.1,1.22 2.99,1.94 z"
       id="path40" />
    <path
       class="cls-1"
       d="m 332.52,147.61 c 3.24,-3.87 4.86,-8.5 4.86,-13.88 0,-6.89 -2.59,-12.43 -7.75,-16.63 -0.89,-0.71 -1.88,-1.36 -2.98,-1.94 l 0.48,30.12 3.36,4.42 c 0.71,-0.65 1.4,-1.34 2.04,-2.1 z"
       id="path42" />
    <path
       class="cls-1"
       d="m 327.44,165.58 16.64,21.84 h -13.4 c 0,0 0,0 0,0 h 14.4 c 0,0 -17.66,-23.18 -17.66,-23.18 z m 16.71,21.84 -0.19,-0.59 0.45,0.59 z"
       id="path44" />
    <polygon
       class="cls-1"
       points="327.72,183.38 330.68,187.42 344.08,187.42 327.44,165.58 "
       id="polygon46" />
    <polygon
       class="cls-1"
       points="344.41,187.42 343.96,186.83 344.15,187.42 "
       id="polygon48" />
    <polygon
       class="cls-1"
       points="345.41,187.42 344.96,186.83 345.15,187.42 "
       id="polygon50" />
    <path
       class="cls-1"
       d="m 314.76,148.94 v 0 c 0,0 1,0 1,0 l -2.14,-2.81 c -0.3,0.03 -0.63,0.05 -0.94,0.07 l 2.09,2.74 z"
       id="path52" />
    <path
       class="cls-1"
       d="m 307.29,146.34 v 2.61 h 7.47 c 0,0 -2.09,-2.74 -2.09,-2.74 -1,0.08 -2.03,0.13 -3.13,0.13 z"
       id="path56" />
    <polyline
       class="cls-1"
       points="306.79 111.45 306.78 111.45 306.29 111.45"
       id="polyline58" />
    <path
       class="cls-1"
       d="m 247.02,147.2 c 1.45,0 2.81,-0.07 4.08,-0.2 l -5.65,-7.41 v 7.62 h 1.57 z"
       id="path60" />
    <path
       class="cls-1"
       d="m 247.05,123.09 h 0.43 c 11.09,0 16.64,3.89 16.64,11.66 0,3.12 -0.81,5.65 -2.42,7.6 l 6.67,8.77 c 0.94,-0.79 1.81,-1.67 2.62,-2.64 3.24,-3.87 4.86,-8.5 4.86,-13.88 0,-6.89 -2.59,-12.43 -7.75,-16.63 -4.66,-3.75 -12.21,-5.63 -22.65,-5.65 v 8.66 l 1.61,2.11 z"
       id="path62" />
    <polygon
       class="cls-1"
       points="245.45,149.81 245.45,157.3 268.16,188.28 282.19,188.28 282.18,187.78 253.24,149.81 "
       id="polygon64" />
    <polygon
       class="cls-1"
       points="282.56,188.28 282.18,187.78 282.19,188.28 "
       id="polygon66" />
    <path
       class="cls-1"
       d="m 245.45,147.2 v 2.61 h 7.79 c 0,0 -2.14,-2.81 -2.14,-2.81 -1.27,0.13 -2.63,0.2 -4.08,0.2 z"
       id="path68" />
    <polygon
       class="cls-1"
       points="179.37,134.99 179.76,159.28 179.81,159.14 192.02,134.25 198.09,147.58 203.87,160.2 203.83,160.2 208.73,170.97 208.78,170.97 217.15,189.43 221.65,189.43 221.34,170.38 192.24,108.68 "
       id="polygon70" />
    <polygon
       class="cls-1"
       points="225.23,178.6 221.34,170.38 221.65,189.43 230.33,189.42 229.8,188.29 225.23,188.29 "
       id="polygon72" />
    <polygon
       class="cls-1"
       points="225.23,178.6 225.23,188.29 229.8,188.29 "
       id="polygon74" />
    <polygon
       class="cls-1"
       points="93.73,190.25 95.53,190.25 94.33,114.27 93.72,114.27 "
       id="polygon76" />
    <polygon
       class="cls-1"
       points="152.22,188.45 152.21,114.26 140.17,114.26 140.18,143.98 117.05,143.99 121.77,154.76 140.18,154.76 140.18,190.24 152.22,190.24 152.22,189.43 151.74,189.43 "
       id="polygon78" />
    <polygon
       class="cls-1"
       points="105.69,114.27 94.33,114.27 95.53,190.25 105.77,190.24 105.77,190.1 105.7,190.1 "
       id="polygon80" />
    <polygon
       class="cls-1"
       points="152.22,188.45 151.74,189.43 152.22,189.43 "
       id="polygon82" />
  </g>
</svg>
