<?xml version="1.0" encoding="UTF-8"?>
<svg id="Layer_1" data-name="Layer 1" xmlns="http://www.w3.org/2000/svg" viewBox="0 0 738 252">
  <defs>
    <style>
      .cls-1 {
        fill: #d2d8e5;
        stroke-width: 0px;
      }
    </style>
  </defs>
  <rect class="cls-1" x="45" y="45" width="18" height="162"/>
  <rect class="cls-1" x="63" y="117" width="63" height="18"/>
  <rect class="cls-1" x="117" y="126" width="18" height="81"/>
  <rect class="cls-1" x="162" y="117" width="36" height="18"/>
  <rect class="cls-1" x="153" y="126" width="18" height="72"/>
  <rect class="cls-1" x="117" y="45" width="18" height="90"/>
  <rect class="cls-1" x="162" y="189" width="72" height="18"/>
  <rect class="cls-1" x="225" y="54" width="18" height="144"/>
  <rect class="cls-1" x="162" y="45" width="72" height="18"/>
  <rect class="cls-1" x="153" y="54" width="18" height="27"/>
  <rect class="cls-1" x="261" y="72" width="18" height="135"/>
  <rect class="cls-1" x="324" y="72" width="18" height="135"/>
  <rect class="cls-1" x="459" y="45" width="18" height="153"/>
  <rect class="cls-1" x="396" y="117" width="63" height="18"/>
  <rect class="cls-1" x="387" y="45" width="18" height="81"/>
  <rect class="cls-1" x="396" y="189" width="72" height="18"/>
  <rect class="cls-1" x="387" y="171" width="18" height="27"/>
  <rect class="cls-1" x="540" y="117" width="36" height="18"/>
  <rect class="cls-1" x="567" y="126" width="18" height="72"/>
  <rect class="cls-1" x="504" y="189" width="72" height="18"/>
  <rect class="cls-1" x="495" y="54" width="18" height="144"/>
  <rect class="cls-1" x="504" y="45" width="72" height="18"/>
  <rect class="cls-1" x="567" y="54" width="18" height="27"/>
  <rect class="cls-1" x="603" y="45" width="18" height="144"/>
  <rect class="cls-1" x="603" y="171" width="18" height="27"/>
  <rect class="cls-1" x="612" y="189" width="72" height="18"/>
  <rect class="cls-1" x="675" y="45" width="18" height="135"/>
  <rect class="cls-1" x="675" y="171" width="18" height="27"/>
  <circle class="cls-1" cx="126" cy="126" r="9"/>
  <circle class="cls-1" cx="162" cy="126" r="9"/>
  <circle class="cls-1" cx="162" cy="54" r="9"/>
  <circle class="cls-1" cx="234" cy="54" r="9"/>
  <circle class="cls-1" cx="162" cy="198" r="9"/>
  <circle class="cls-1" cx="234" cy="198" r="9"/>
  <circle class="cls-1" cx="396" cy="126" r="9"/>
  <circle class="cls-1" cx="396" cy="198" r="9"/>
  <circle class="cls-1" cx="468" cy="198" r="9"/>
  <circle class="cls-1" cx="576" cy="198" r="9"/>
  <circle class="cls-1" cx="576" cy="54" r="9"/>
  <circle class="cls-1" cx="576" cy="126" r="9"/>
  <circle class="cls-1" cx="504" cy="198" r="9"/>
  <circle class="cls-1" cx="504" cy="54" r="9"/>
  <circle class="cls-1" cx="612" cy="198" r="9"/>
  <circle class="cls-1" cx="684" cy="198" r="9"/>
  <path class="cls-1" d="m288,63v-18c-14.91,0-27,12.09-27,27h18c0-4.97,4.03-9,9-9Z"/>
  <rect class="cls-1" x="288" y="45" width="18" height="18"/>
  <path class="cls-1" d="m351,63v-18c-14.91,0-27,12.09-27,27h18c0-4.97,4.03-9,9-9Z"/>
  <rect class="cls-1" x="351" y="45" width="18" height="18"/>
  <rect class="cls-1" x="9" width="720" height="18"/>
  <rect class="cls-1" x="720" y="9" width="18" height="234"/>
  <rect class="cls-1" y="9" width="18" height="234"/>
  <rect class="cls-1" x="9" y="234" width="720" height="18"/>
  <circle class="cls-1" cx="9" cy="9" r="9"/>
  <circle class="cls-1" cx="9" cy="243" r="9"/>
  <circle class="cls-1" cx="729" cy="243" r="9"/>
  <circle class="cls-1" cx="729" cy="9" r="9"/>
</svg>